<svg xmlns="http://www.w3.org/2000/svg" version="1.1" xmlns:xlink="http://www.w3.org/1999/xlink" xmlns:svgjs="http://svgjs.dev/svgjs" width="2000" height="2024" viewBox="0 0 2000 2024"><g transform="matrix(1,0,0,1,1.7678688524587187,0.8194331983804659)"><svg viewBox="0 0 244 247" data-background-color="#ffffff" preserveAspectRatio="xMidYMid meet" height="2024" width="2000" xmlns="http://www.w3.org/2000/svg" xmlns:xlink="http://www.w3.org/1999/xlink"><g id="tight-bounds" transform="matrix(1,0,0,1,-0.21567999999996346,-0.09999999999999432)"><svg viewBox="0 0 244.43135999999996 247.2" height="247.2" width="244.43135999999996"><g><svg></svg></g><g><svg viewBox="0 0 244.43135999999996 247.2" height="247.2" width="244.43135999999996"><g transform="matrix(1,0,0,1,0,57.78822742636814)"><svg viewBox="0 0 244.43135999999996 131.6235451472637" height="131.6235451472637" width="244.43135999999996"><g><svg viewBox="0 0 244.43135999999996 131.6235451472637" height="131.6235451472637" width="244.43135999999996"><g><svg viewBox="0 0 244.43136 131.62354514726374" height="131.6235451472637" width="244.43135999999996"><g transform="matrix(1,0,0,1,0,81.34863137575225)"><svg viewBox="0 0 244.43136 50.2749137715115" height="50.2749137715115" width="244.43136"><g id="textblocktransform"><svg viewBox="0 0 244.43136 50.2749137715115" height="50.2749137715115" width="244.43136" id="textblock"><g><svg viewBox="0 0 244.43136 50.2749137715115" height="50.2749137715115" width="244.43136"><g transform="matrix(1,0,0,1,0,0)"><svg width="244.43136" viewBox="1.75 -37.5 241.13 49.6" height="50.2749137715115" data-palette-color="#152232"><path d="M19.4 0.7L19.4 0.7Q13.85 0.7 9.9-1.56 5.95-3.83 3.85-7.93 1.75-12.03 1.75-17.55L1.75-17.55Q1.75-23.03 4.09-27.11 6.43-31.2 10.55-33.45 14.68-35.7 20.05-35.7L20.05-35.7Q22.83-35.7 25.36-35.13 27.9-34.55 29.7-33.65L29.7-33.65 29-27.55Q27.13-28.43 24.86-28.99 22.6-29.55 20.05-29.55L20.05-29.55Q16.15-29.55 13.65-27.99 11.15-26.43 9.95-23.74 8.75-21.05 8.75-17.65L8.75-17.65Q8.75-14.08 9.96-11.33 11.18-8.58 13.6-7.01 16.03-5.45 19.65-5.45L19.65-5.45Q20.75-5.45 21.96-5.6 23.18-5.75 24.45-6L24.45-6 24.45-12.25 19.65-12.25 19.65-17.55 30.85-17.55 30.85-1.95Q29.03-0.88 26.01-0.09 23 0.7 19.4 0.7ZM43.7 12.1L37.5 12.1 43.05-1.65 32.65-25 39.55-25 45.95-8.9 52.45-25 59.35-25 43.7 12.1ZM68.55 0L62.35 0 62.35-25 67.65-25 68.05-21.35 67.15-22.45Q68.57-23.58 70.56-24.49 72.55-25.4 75.2-25.4L75.2-25.4Q77.2-25.4 78.73-24.81 80.27-24.23 81.37-23.14 82.47-22.05 83.15-20.55L83.15-20.55 81.65-20.9Q82.85-23.05 85.16-24.23 87.47-25.4 90.4-25.4L90.4-25.4Q93.84-25.4 96.02-23.98 98.2-22.55 99.22-19.96 100.25-17.38 100.25-13.9L100.25-13.9 100.25 0 94.05 0 94.05-13.45Q94.05-16.95 92.96-18.63 91.87-20.3 89.35-20.3L89.35-20.3Q88.1-20.3 87.16-19.86 86.22-19.43 85.61-18.59 85-17.75 84.7-16.56 84.4-15.38 84.4-13.9L84.4-13.9 84.4 0 78.2 0 78.2-13.45Q78.2-15.78 77.71-17.3 77.22-18.82 76.16-19.56 75.1-20.3 73.4-20.3L73.4-20.3Q71.22-20.3 69.83-19.29 68.45-18.28 67.4-16.55L67.4-16.55 68.55-19.9 68.55 0ZM118.79 0.5L118.79 0.5Q115.94 0.5 113.87-0.43 111.79-1.35 109.99-2.95L109.99-2.95 111.84-4.25 111.54 0 105.74 0 105.74-37.5 111.94-37.5 111.94-20.85 110.44-21.8Q112.09-23.5 114.13-24.45 116.17-25.4 118.79-25.4L118.79-25.4Q122.47-25.4 124.97-23.63 127.47-21.85 128.76-18.9 130.04-15.95 130.04-12.45L130.04-12.45Q130.04-8.95 128.76-6 127.47-3.05 124.97-1.28 122.47 0.5 118.79 0.5ZM117.89-4.6L117.89-4.6Q119.74-4.6 121.04-5.6 122.34-6.6 123.02-8.36 123.69-10.13 123.69-12.45L123.69-12.45Q123.69-14.78 123.02-16.54 122.34-18.3 121.04-19.3 119.74-20.3 117.89-20.3L117.89-20.3Q115.72-20.3 114.34-19.3 112.97-18.3 112.31-16.54 111.64-14.78 111.64-12.45L111.64-12.45Q111.64-10.13 112.31-8.36 112.97-6.6 114.34-5.6 115.72-4.6 117.89-4.6ZM144.69 0.5L144.69 0.5Q140.79 0.5 138.47-1.05 136.14-2.6 135.12-5.31 134.09-8.03 134.09-11.55L134.09-11.55 134.09-25 140.29-25 140.29-11.55Q140.29-8.08 141.45-6.39 142.62-4.7 145.24-4.7L145.24-4.7Q147.34-4.7 148.73-5.7 150.12-6.7 151.04-8.5L151.04-8.5 149.94-5.35 149.94-25 156.14-25 156.14 0 150.34 0 150.04-4.35 151.39-2.6Q150.49-1.45 148.55-0.48 146.62 0.5 144.69 0.5ZM172.04 0.5L172.04 0.5Q168.24 0.5 165.65-1.28 163.06-3.05 161.75-6 160.44-8.95 160.44-12.45L160.44-12.45Q160.44-15.95 161.75-18.9 163.06-21.85 165.65-23.63 168.24-25.4 172.04-25.4L172.04-25.4Q174.79-25.4 176.69-24.49 178.59-23.58 180.04-22.15L180.04-22.15 178.54-20.85 178.54-37.5 184.74-37.5 184.74 0 178.89 0 178.59-4.25 180.39-2.95Q178.64-1.35 176.76-0.43 174.89 0.5 172.04 0.5ZM172.94-4.6L172.94-4.6Q174.99-4.6 176.29-5.6 177.59-6.6 178.21-8.36 178.84-10.13 178.84-12.45L178.84-12.45Q178.84-14.78 178.21-16.54 177.59-18.3 176.29-19.3 174.99-20.3 172.94-20.3L172.94-20.3Q170.99-20.3 169.61-19.3 168.24-18.3 167.51-16.54 166.79-14.78 166.79-12.45L166.79-12.45Q166.79-10.13 167.51-8.36 168.24-6.6 169.61-5.6 170.99-4.6 172.94-4.6ZM200.59 0.5L200.59 0.5Q196.79 0.5 194.2-1.28 191.61-3.05 190.3-6 188.99-8.95 188.99-12.45L188.99-12.45Q188.99-15.95 190.3-18.9 191.61-21.85 194.2-23.63 196.79-25.4 200.59-25.4L200.59-25.4Q203.34-25.4 205.24-24.49 207.14-23.58 208.59-22.15L208.59-22.15 207.09-20.85 207.09-37.5 213.29-37.5 213.29 0 207.44 0 207.14-4.25 208.94-2.95Q207.19-1.35 205.31-0.43 203.44 0.5 200.59 0.5ZM201.49-4.6L201.49-4.6Q203.54-4.6 204.84-5.6 206.14-6.6 206.76-8.36 207.39-10.13 207.39-12.45L207.39-12.45Q207.39-14.78 206.76-16.54 206.14-18.3 204.84-19.3 203.54-20.3 201.49-20.3L201.49-20.3Q199.54-20.3 198.16-19.3 196.79-18.3 196.06-16.54 195.34-14.78 195.34-12.45L195.34-12.45Q195.34-10.13 196.06-8.36 196.79-6.6 198.16-5.6 199.54-4.6 201.49-4.6ZM227.23 12.1L221.03 12.1 226.58-1.65 216.18-25 223.08-25 229.48-8.9 235.98-25 242.88-25 227.23 12.1Z" opacity="1" transform="matrix(1,0,0,1,0,0)" fill="#ffffff" class="wordmark-text-0" data-fill-palette-color="primary" id="text-0"></path></svg></g></svg></g></svg></g></svg></g><g transform="matrix(1,0,0,1,58.64648807008255,0)"><svg viewBox="0 0 127.13838385983492 69.4799308322289" height="69.4799308322289" width="127.13838385983492"><g><svg xmlns="http://www.w3.org/2000/svg" xmlns:xlink="http://www.w3.org/1999/xlink" version="1.1" x="0" y="0" viewBox="0.9739999999999999 7.454000000000001 22.111999999999995 12.084" enable-background="new 0 0 24 24" xml:space="preserve" height="69.4799308322289" width="127.13838385983492" class="icon-icon-0" data-fill-palette-color="accent" id="icon-0"><path d="M22.535 11.698h-1.529v-1.177c0-0.579-0.471-1.049-1.05-1.049h-1.531v-0.97c0-0.578-0.469-1.048-1.048-1.048h-1.831c-0.578 0-1.048 0.47-1.048 1.048v3.196H9.563V8.502c0-0.578-0.471-1.048-1.049-1.048H6.684c-0.578 0-1.049 0.47-1.049 1.048v0.97H4.104c-0.579 0-1.048 0.471-1.048 1.049v1.177H1.523c-0.303 0-0.549 0.245-0.549 0.549v2.456c0 0.303 0.246 0.549 0.549 0.549h1.532v1.218c0 0.579 0.47 1.05 1.048 1.05h1.531v0.969c0 0.579 0.471 1.049 1.049 1.049h1.831c0.578 0 1.049-0.47 1.049-1.049v-3.236h4.935v3.236c0 0.579 0.47 1.049 1.048 1.049h1.831c0.579 0 1.048-0.47 1.048-1.049V17.52h1.531c0.579 0 1.05-0.471 1.05-1.05v-1.218h1.529c0.305 0 0.551-0.246 0.551-0.549v-2.456C23.086 11.943 22.84 11.698 22.535 11.698zM2.073 14.153v-1.357h0.982v1.357H2.073zM4.154 16.421V10.57h1.481v5.851H4.154zM8.464 18.438H6.733V16.47v-5.948V8.553h1.731V18.438zM9.563 14.153v-1.357h4.935v1.357H9.563zM17.327 18.438h-1.731V8.553h1.731v1.969 5.948V18.438zM19.906 16.421h-1.481V10.57h1.481V16.421zM21.986 14.153h-0.98v-1.357h0.98V14.153z" fill="#ffffff" data-fill-palette-color="accent"></path></svg></g></svg></g><g></g></svg></g></svg></g></svg></g><path d="M0 51.788L0 1 244.431 1 244.431 51.788 239.898 51.788 239.898 5.534 4.534 5.534 4.534 51.788 0 51.788M0 195.412L0 246.2 244.431 246.2 244.431 195.412 239.898 195.412 239.898 241.666 4.534 241.666 4.534 195.412 0 195.412" fill="#ffffff" stroke="transparent" data-fill-palette-color="primary"></path></svg></g><defs></defs></svg><rect width="244.43135999999996" height="247.2" fill="none" stroke="none" visibility="hidden"></rect></g></svg></g></svg>