<svg xmlns="http://www.w3.org/2000/svg" version="1.1" xmlns:xlink="http://www.w3.org/1999/xlink" xmlns:svgjs="http://svgjs.dev/svgjs" width="2000" height="267" viewBox="0 0 2000 267"><g transform="matrix(1,0,0,1,-1.2121212121212466,0.7363877510397003)"><svg viewBox="0 0 396 53" data-background-color="#ffffff" preserveAspectRatio="xMidYMid meet" height="267" width="2000" xmlns="http://www.w3.org/2000/svg" xmlns:xlink="http://www.w3.org/1999/xlink"><g id="tight-bounds" transform="matrix(1,0,0,1,0.2400000000000091,-0.14617434758466175)"><svg viewBox="0 0 395.52 53.292348695169345" height="53.292348695169345" width="395.52"><g><svg viewBox="0 0 395.52 53.292348695169345" height="53.292348695169345" width="395.52"><g><svg viewBox="0 0 395.52 53.292348695169345" height="53.292348695169345" width="395.52"><g id="textblocktransform"><svg viewBox="0 0 395.52 53.292348695169345" height="53.292348695169345" width="395.52" id="textblock"><g><svg viewBox="0 0 395.52 53.292348695169345" height="53.292348695169345" width="395.52"><g transform="matrix(1,0,0,1,0,0)"><svg width="395.52" viewBox="1.75 -35.7 270.13 36.400000000000006" height="53.292348695169345" data-palette-color="#ffffff"><path d="M19.4 0.7L19.4 0.7Q13.85 0.7 9.9-1.56 5.95-3.83 3.85-7.93 1.75-12.03 1.75-17.55L1.75-17.55Q1.75-23.03 4.09-27.11 6.43-31.2 10.55-33.45 14.68-35.7 20.05-35.7L20.05-35.7Q22.83-35.7 25.36-35.13 27.9-34.55 29.7-33.65L29.7-33.65 29-27.55Q27.13-28.43 24.86-28.99 22.6-29.55 20.05-29.55L20.05-29.55Q16.15-29.55 13.65-27.99 11.15-26.43 9.95-23.74 8.75-21.05 8.75-17.65L8.75-17.65Q8.75-14.08 9.96-11.33 11.18-8.58 13.6-7.01 16.03-5.45 19.65-5.45L19.65-5.45Q20.75-5.45 21.96-5.6 23.18-5.75 24.45-6L24.45-6 24.45-12.25 19.65-12.25 19.65-17.55 30.85-17.55 30.85-1.95Q29.03-0.88 26.01-0.09 23 0.7 19.4 0.7ZM51.5 0L45.1 0 45.1-14.15 32.8-35 39.8-35 49.8-17.25 46.8-17.25 56.8-35 63.8-35 51.5-14.15 51.5 0ZM71 0L64.35 0 69.2-35 74.45-35 83-19.05 91.5-35 96.75-35 101.6 0 94.95 0 91.6-26.3 93.35-25.95 83-7.35 72.6-25.9 74.35-26.25 71 0ZM121.99 0L107.39 0 107.39-35 120.59-35Q125.67-35 128.13-32.84 130.59-30.68 130.59-26.55L130.59-26.55Q130.59-23.48 129.21-21.41 127.82-19.35 125.04-18.4L125.04-18.4 125.04-19.6Q129.24-18.7 131.32-16.3 133.39-13.9 133.39-9.95L133.39-9.95Q133.39-5.23 130.34-2.61 127.29 0 121.99 0L121.99 0ZM113.79-15.55L113.79-5.7 121.04-5.7Q123.67-5.7 125.23-6.78 126.79-7.85 126.79-10.65L126.79-10.65Q126.79-13.5 125.14-14.53 123.49-15.55 121.04-15.55L121.04-15.55 113.79-15.55ZM113.79-29.3L113.79-21.25 119.64-21.25Q121.97-21.25 123.13-22.2 124.29-23.15 124.29-25.25L124.29-25.25Q124.29-27.43 123.13-28.36 121.97-29.3 119.64-29.3L119.64-29.3 113.79-29.3ZM152.79 0.7L152.79 0.7Q147.87 0.7 144.65-1.25 141.44-3.2 139.87-6.73 138.29-10.25 138.29-15L138.29-15 138.29-35 144.69-35 144.69-16.65Q144.69-14.15 145.02-12.09 145.34-10.03 146.2-8.54 147.07-7.05 148.67-6.25 150.27-5.45 152.79-5.45L152.79-5.45Q155.32-5.45 156.92-6.25 158.52-7.05 159.38-8.54 160.24-10.03 160.57-12.09 160.89-14.15 160.89-16.65L160.89-16.65 160.89-35 167.29-35 167.29-15Q167.29-10.25 165.72-6.73 164.14-3.2 160.93-1.25 157.72 0.7 152.79 0.7ZM187.69 0L174.59 0 174.59-35 187.69-35Q192.69-35 196.59-32.91 200.49-30.83 202.71-26.91 204.94-23 204.94-17.5L204.94-17.5Q204.94-12 202.71-8.09 200.49-4.17 196.59-2.09 192.69 0 187.69 0L187.69 0ZM180.99-29.3L180.99-5.7 187.69-5.7Q191.09-5.7 193.36-7.13 195.64-8.55 196.79-11.2 197.94-13.85 197.94-17.5L197.94-17.5Q197.94-21.15 196.79-23.8 195.64-26.45 193.36-27.88 191.09-29.3 187.69-29.3L187.69-29.3 180.99-29.3ZM223.69 0L210.59 0 210.59-35 223.69-35Q228.69-35 232.59-32.91 236.49-30.83 238.71-26.91 240.94-23 240.94-17.5L240.94-17.5Q240.94-12 238.71-8.09 236.49-4.17 232.59-2.09 228.69 0 223.69 0L223.69 0ZM216.99-29.3L216.99-5.7 223.69-5.7Q227.09-5.7 229.36-7.13 231.64-8.55 232.79-11.2 233.94-13.85 233.94-17.5L233.94-17.5Q233.94-21.15 232.79-23.8 231.64-26.45 229.36-27.88 227.09-29.3 223.69-29.3L223.69-29.3 216.99-29.3ZM259.58 0L253.18 0 253.18-14.15 240.88-35 247.88-35 257.88-17.25 254.88-17.25 264.88-35 271.88-35 259.58-14.15 259.58 0Z" opacity="1" transform="matrix(1,0,0,1,0,0)" fill="#ffffff" class="wordmark-text-0" data-fill-palette-color="primary" id="text-0"></path></svg></g></svg></g></svg></g></svg></g><g></g></svg></g><defs></defs></svg><rect width="395.52" height="53.292348695169345" fill="none" stroke="none" visibility="hidden"></rect></g></svg></g></svg>